<svg width="30" height="30" viewBox="0 0 30 30" fill="none" xmlns="http://www.w3.org/2000/svg">
<g id="fluent:delete-28-filled">
<path id="Vector" d="M12.3215 6.4286H17.6786C17.6786 5.7182 17.3964 5.03689 16.8941 4.53456C16.3918 4.03223 15.7105 3.75003 15.0001 3.75003C14.2897 3.75003 13.6084 4.03223 13.106 4.53456C12.6037 5.03689 12.3215 5.7182 12.3215 6.4286ZM10.7144 6.4286C10.7144 5.29196 11.1659 4.20187 11.9696 3.39814C12.7733 2.59441 13.8634 2.14288 15.0001 2.14288C16.1367 2.14288 17.2268 2.59441 18.0305 3.39814C18.8343 4.20187 19.2858 5.29196 19.2858 6.4286H25.9822C26.1953 6.4286 26.3997 6.51326 26.5504 6.66396C26.7011 6.81466 26.7858 7.01905 26.7858 7.23217C26.7858 7.44529 26.7011 7.64968 26.5504 7.80038C26.3997 7.95108 26.1953 8.03574 25.9822 8.03574H24.5786L23.2747 23.6818C23.1798 24.82 22.6607 25.881 21.8202 26.6544C20.9798 27.4278 19.8794 27.8571 18.7372 27.8572H11.2629C10.1208 27.8571 9.02036 27.4278 8.1799 26.6544C7.33943 25.881 6.82029 24.82 6.72543 23.6818L5.4215 8.03574H4.01793C3.80481 8.03574 3.60041 7.95108 3.44972 7.80038C3.29902 7.64968 3.21436 7.44529 3.21436 7.23217C3.21436 7.01905 3.29902 6.81466 3.44972 6.66396C3.60041 6.51326 3.80481 6.4286 4.01793 6.4286H10.7144ZM13.3929 12.5893C13.3929 12.3762 13.3083 12.1718 13.1576 12.0211C13.0069 11.8704 12.8025 11.7857 12.5894 11.7857C12.3762 11.7857 12.1718 11.8704 12.0211 12.0211C11.8704 12.1718 11.7858 12.3762 11.7858 12.5893V21.6965C11.7858 21.9096 11.8704 22.114 12.0211 22.2647C12.1718 22.4154 12.3762 22.5 12.5894 22.5C12.8025 22.5 13.0069 22.4154 13.1576 22.2647C13.3083 22.114 13.3929 21.9096 13.3929 21.6965V12.5893ZM17.4108 11.7857C17.1977 11.7857 16.9933 11.8704 16.8426 12.0211C16.6919 12.1718 16.6072 12.3762 16.6072 12.5893V21.6965C16.6072 21.9096 16.6919 22.114 16.8426 22.2647C16.9933 22.4154 17.1977 22.5 17.4108 22.5C17.6239 22.5 17.8283 22.4154 17.979 22.2647C18.1297 22.114 18.2144 21.9096 18.2144 21.6965V12.5893C18.2144 12.3762 18.1297 12.1718 17.979 12.0211C17.8283 11.8704 17.6239 11.7857 17.4108 11.7857Z" fill="#405D60"/>
</g>
</svg>
