<svg width="24" height="24" viewBox="0 0 24 24" fill="none" xmlns="http://www.w3.org/2000/svg">
<g id="ic:outline-favorite-border">
<path id="Vector" d="M16.5 3C14.76 3 13.09 3.88283 12 5.27793C10.91 3.88283 9.24 3 7.5 3C4.42 3 2 5.6376 2 8.99455C2 13.1144 5.4 16.4714 10.55 21.5722L12 23L13.45 21.5613C18.6 16.4714 22 13.1144 22 8.99455C22 5.6376 19.58 3 16.5 3ZM12.1 19.9482L12 20.0572L11.9 19.9482C7.14 15.2507 4 12.1444 4 8.99455C4 6.81471 5.5 5.17984 7.5 5.17984C9.04 5.17984 10.54 6.25886 11.07 7.75204H12.94C13.46 6.25886 14.96 5.17984 16.5 5.17984C18.5 5.17984 20 6.81471 20 8.99455C20 12.1444 16.86 15.2507 12.1 19.9482Z" fill="#374B4D"/>
</g>
</svg>
