<svg width="11" height="11" viewBox="0 0 11 11" fill="none" xmlns="http://www.w3.org/2000/svg">
<g id="ph:plus">
<path id="Vector" d="M9.625 5.5C9.625 5.59117 9.58878 5.6786 9.52432 5.74307C9.45985 5.80753 9.37242 5.84375 9.28125 5.84375H5.84375V9.28125C5.84375 9.37242 5.80753 9.45985 5.74307 9.52432C5.6786 9.58878 5.59117 9.625 5.5 9.625C5.40883 9.625 5.3214 9.58878 5.25693 9.52432C5.19247 9.45985 5.15625 9.37242 5.15625 9.28125V5.84375H1.71875C1.62758 5.84375 1.54015 5.80753 1.47568 5.74307C1.41122 5.6786 1.375 5.59117 1.375 5.5C1.375 5.40883 1.41122 5.3214 1.47568 5.25693C1.54015 5.19247 1.62758 5.15625 1.71875 5.15625H5.15625V1.71875C5.15625 1.62758 5.19247 1.54015 5.25693 1.47568C5.3214 1.41122 5.40883 1.375 5.5 1.375C5.59117 1.375 5.6786 1.41122 5.74307 1.47568C5.80753 1.54015 5.84375 1.62758 5.84375 1.71875V5.15625H9.28125C9.37242 5.15625 9.45985 5.19247 9.52432 5.25693C9.58878 5.3214 9.625 5.40883 9.625 5.5Z" fill="black"/>
</g>
</svg>
