<svg width="35" height="36" viewBox="0 0 35 36" fill="none" xmlns="http://www.w3.org/2000/svg">
<g id="tabler:clock">
<g id="Group">
<path id="Vector" d="M4.375 18C4.375 19.7728 4.71449 21.5283 5.37408 23.1662C6.03367 24.8041 7.00045 26.2923 8.21922 27.5459C9.43799 28.7995 10.8849 29.7939 12.4773 30.4724C14.0697 31.1508 15.7764 31.5 17.5 31.5C19.2236 31.5 20.9303 31.1508 22.5227 30.4724C24.1151 29.7939 25.562 28.7995 26.7808 27.5459C27.9995 26.2923 28.9663 24.8041 29.6259 23.1662C30.2855 21.5283 30.625 19.7728 30.625 18C30.625 14.4196 29.2422 10.9858 26.7808 8.45406C24.3194 5.92232 20.981 4.5 17.5 4.5C14.019 4.5 10.6806 5.92232 8.21922 8.45406C5.75781 10.9858 4.375 14.4196 4.375 18Z" stroke="#FCA33A" stroke-width="2" stroke-linecap="round" stroke-linejoin="round"/>
<path id="Vector_2" d="M17.5 10.5V18L21.875 22.5" stroke="#FCA33A" stroke-width="2" stroke-linecap="round" stroke-linejoin="round"/>
</g>
</g>
</svg>
