<svg width="20" height="20" viewBox="0 0 20 20" fill="none" xmlns="http://www.w3.org/2000/svg">
<path id="Vector" d="M3.16505 1.64915L3.16521 1.64943C3.38709 2.05432 3.55455 2.53783 3.69224 3.00349L3.80714 3.39205L4.21107 3.36016C4.23614 3.35819 4.26127 3.35718 4.28642 3.35714C4.28648 3.35714 4.28654 3.35714 4.2866 3.35714L18.5704 3.35714C19.1873 3.35714 19.6328 3.94703 19.4634 4.5405L19.4634 4.54056L17.3741 11.8651L17.3741 11.8652C17.2166 12.4176 16.8834 12.9037 16.4248 13.2499C15.9663 13.596 15.4075 13.7833 14.833 13.7834C14.833 13.7834 14.833 13.7834 14.8329 13.7834H8.03485H8.03483C7.45574 13.7835 6.89267 13.5933 6.43217 13.2422C5.97172 12.8912 5.63929 12.3987 5.48598 11.8404C5.48597 11.8403 5.48595 11.8403 5.48594 11.8402L4.61735 8.67236L4.61745 8.67233L4.6145 8.66238L3.18609 3.84692L3.18556 3.84273L3.17599 3.80793C3.17229 3.79448 3.16859 3.78102 3.16488 3.76754C2.99526 3.15083 2.81555 2.49745 2.53829 1.99329C2.40179 1.74213 2.25277 1.5438 2.07333 1.40898C1.87562 1.26042 1.67517 1.21429 1.4961 1.21429H0.857203C0.762455 1.21429 0.671595 1.17665 0.60461 1.10967C0.537625 1.04269 0.5 0.951852 0.5 0.857143C0.5 0.762434 0.537625 0.671597 0.60461 0.604617C0.671595 0.537636 0.762455 0.5 0.857203 0.5H1.49496C2.31202 0.5 2.83034 1.03745 3.16505 1.64915ZM5.3147 8.51628L5.31468 8.51628L5.31592 8.52079L6.17426 11.6511L6.17458 11.6522C6.40571 12.4873 7.16558 13.0691 8.03485 13.0691H14.833C15.2523 13.0691 15.6601 12.9325 15.9947 12.6801C16.3294 12.4276 16.5726 12.0729 16.6877 11.6698L16.6877 11.6697L18.673 4.70856L18.8547 4.07143H18.1921H4.6689H3.99924L4.1895 4.71349L5.30061 8.46291L5.3147 8.51628ZM9.21496 17.7143C9.21496 18.1879 9.02682 18.6421 8.69191 18.977C8.35699 19.3119 7.90274 19.5 7.42909 19.5C6.95544 19.5 6.50119 19.3119 6.16627 18.977C5.83136 18.6421 5.64322 18.1879 5.64322 17.7143C5.64322 17.2407 5.83136 16.7865 6.16627 16.4516L5.81273 16.098L6.16627 16.4516C6.50119 16.1167 6.95544 15.9286 7.42909 15.9286C7.90274 15.9286 8.35699 16.1167 8.69191 16.4516C9.02682 16.7865 9.21496 17.2407 9.21496 17.7143ZM8.50056 17.7143C8.50056 17.4301 8.38766 17.1576 8.18672 16.9567C7.98578 16.7557 7.71325 16.6429 7.42909 16.6429C7.14493 16.6429 6.8724 16.7557 6.67146 16.9567C6.47052 17.1576 6.35762 17.4301 6.35762 17.7143C6.35762 17.9985 6.47052 18.271 6.67146 18.4719C6.8724 18.6728 7.14493 18.7857 7.42909 18.7857C7.71325 18.7857 7.98578 18.6728 8.18672 18.4719C8.38766 18.271 8.50056 17.9985 8.50056 17.7143ZM17.2155 17.7143C17.2155 18.1879 17.0274 18.6421 16.6925 18.977C16.3576 19.3119 15.9033 19.5 15.4296 19.5C14.956 19.5 14.5017 19.3119 14.1668 18.977C13.8319 18.6421 13.6438 18.1879 13.6438 17.7143C13.6438 17.2407 13.8319 16.7865 14.1668 16.4516C14.5017 16.1167 14.956 15.9286 15.4296 15.9286C15.9033 15.9286 16.3575 16.1167 16.6925 16.4516C17.0274 16.7865 17.2155 17.2407 17.2155 17.7143ZM16.5011 17.7143C16.5011 17.4301 16.3882 17.1576 16.1873 16.9567C15.9863 16.7557 15.7138 16.6429 15.4296 16.6429C15.1455 16.6429 14.873 16.7557 14.672 16.9567C14.4711 17.1576 14.3582 17.4301 14.3582 17.7143C14.3582 17.9985 14.4711 18.271 14.672 18.4719C14.873 18.6728 15.1455 18.7857 15.4296 18.7857C15.7138 18.7857 15.9863 18.6728 16.1873 18.4719C16.3882 18.271 16.5011 17.9985 16.5011 17.7143Z" fill="black" stroke="#374B4D"/>
</svg>
