<svg width="32" height="32" viewBox="0 0 32 32" fill="none" xmlns="http://www.w3.org/2000/svg">
<g id="Group 3">
<g id="Group">
<path id="Vector" fill-rule="evenodd" clip-rule="evenodd" d="M16 10.2558C14.4366 10.2558 12.9373 10.8347 11.8318 11.865C10.7263 12.8954 10.1052 14.2929 10.1052 15.75C10.1052 17.2071 10.7263 18.6046 11.8318 19.635C12.9373 20.6653 14.4366 21.2442 16 21.2442C17.5634 21.2442 19.0628 20.6653 20.1683 19.635C21.2737 18.6046 21.8948 17.2071 21.8948 15.75C21.8948 14.2929 21.2737 12.8954 20.1683 11.865C19.0628 10.8347 17.5634 10.2558 16 10.2558ZM12.4631 15.75C12.4631 14.8757 12.8358 14.0372 13.4991 13.419C14.1624 12.8008 15.062 12.4535 16 12.4535C16.938 12.4535 17.8377 12.8008 18.501 13.419C19.1642 14.0372 19.5369 14.8757 19.5369 15.75C19.5369 16.6243 19.1642 17.4628 18.501 18.081C17.8377 18.6992 16.938 19.0465 16 19.0465C15.062 19.0465 14.1624 18.6992 13.4991 18.081C12.8358 17.4628 12.4631 16.6243 12.4631 15.75Z" fill="black"/>
<path id="Vector_2" fill-rule="evenodd" clip-rule="evenodd" d="M15.9607 0C15.2612 0 14.678 -2.72899e-08 14.2001 0.0293023C13.7117 0.0482605 13.2299 0.142318 12.7744 0.307674C12.2497 0.509992 11.773 0.806654 11.3714 1.18072C10.9698 1.55478 10.6512 1.99892 10.4337 2.48777C10.2058 3.00056 10.1445 3.54265 10.1194 4.13163C10.1168 4.34703 10.0557 4.55831 9.94156 4.74564C9.82745 4.93297 9.66416 5.09022 9.467 5.20263C9.26404 5.30592 9.03624 5.35944 8.80499 5.35816C8.57374 5.35688 8.34663 5.30084 8.145 5.1953C7.58539 4.91986 7.05093 4.69863 6.45988 4.62537C5.89704 4.55637 5.32512 4.59137 4.77679 4.72837C4.22846 4.86538 3.71445 5.10171 3.26412 5.42386C2.88335 5.70938 2.55567 6.05143 2.29423 6.43626C2.027 6.8084 1.73462 7.2787 1.38565 7.84277L1.34635 7.90723C0.995803 8.4713 0.704994 8.9416 0.494354 9.34305C0.274282 9.76207 0.101368 10.1752 0.0384902 10.6323C-0.111473 11.6916 0.196124 12.763 0.893627 13.6109C1.25675 14.0519 1.7299 14.3728 2.26436 14.6863C2.46362 14.7961 2.62963 14.9514 2.74678 15.1374C2.86393 15.3235 2.92836 15.5343 2.93401 15.75C2.92836 15.9657 2.86393 16.1765 2.74678 16.3626C2.62963 16.5486 2.46362 16.7039 2.26436 16.8137C1.7299 17.1272 1.25832 17.4481 0.893627 17.8891C0.547983 18.3088 0.294425 18.7879 0.147431 19.2989C0.000436116 19.81 -0.037116 20.3431 0.0369183 20.8677C0.101368 21.3248 0.27271 21.7379 0.492782 22.157C0.704994 22.5584 0.995803 23.0287 1.34635 23.5928L1.38565 23.6572C1.73462 24.2213 2.027 24.6916 2.29423 25.0637C2.57246 25.4491 2.87113 25.7963 3.26412 26.0747C3.71434 26.3971 4.22829 26.6337 4.77662 26.7709C5.32496 26.9082 5.89693 26.9434 6.45988 26.8746C7.05093 26.8014 7.58539 26.5816 8.145 26.3047C8.34639 26.1993 8.57323 26.1433 8.8042 26.142C9.03517 26.1408 9.26271 26.1942 9.46543 26.2974C9.66368 26.4089 9.828 26.5659 9.94275 26.7534C10.0575 26.9408 10.1188 27.1526 10.1209 27.3684C10.1445 27.9573 10.2058 28.4994 10.4353 29.0122C10.6524 29.5012 10.9707 29.9456 11.372 30.3199C11.7734 30.6942 12.2499 30.9911 12.7744 31.1938C13.2302 31.3696 13.7018 31.4385 14.2001 31.4692C14.678 31.5 15.2612 31.5 15.9607 31.5H16.0393C16.7388 31.5 17.322 31.5 17.7999 31.4707C18.2998 31.4385 18.7698 31.3696 19.2256 31.1923C19.7503 30.99 20.227 30.6933 20.6286 30.3193C21.0302 29.9452 21.3488 29.5011 21.5663 29.0122C21.7942 28.4994 21.8555 27.9573 21.8806 27.3684C21.8829 27.1527 21.9439 26.9411 22.0581 26.7535C22.1722 26.5659 22.3356 26.4084 22.533 26.2959C22.7361 26.1928 22.964 26.1396 23.1952 26.1411C23.4265 26.1426 23.6535 26.1989 23.855 26.3047C24.4146 26.5801 24.9491 26.8014 25.5401 26.8732C26.6766 27.0129 27.8262 26.7262 28.7359 26.0761C29.1289 25.7948 29.4275 25.4491 29.7058 25.0637C29.973 24.6916 30.2654 24.2213 30.6144 23.6572L30.6537 23.5928C31.0042 23.0287 31.295 22.5584 31.5056 22.157C31.7257 21.7379 31.8986 21.3233 31.9615 20.8677C32.1115 19.8084 31.8039 18.737 31.1064 17.8891C30.7433 17.4481 30.2701 17.1272 29.7356 16.8137C29.5364 16.7039 29.3704 16.5486 29.2532 16.3626C29.1361 16.1765 29.0716 15.9657 29.066 15.75C29.066 15.3427 29.3049 14.9383 29.7356 14.6863C30.2701 14.3728 30.7417 14.0519 31.1064 13.6109C31.452 13.1912 31.7056 12.7121 31.8526 12.2011C31.9996 11.69 32.0371 11.1569 31.9631 10.6323C31.8883 10.1821 31.7342 9.74651 31.5072 9.34305C31.2388 8.85626 30.9542 8.37742 30.6537 7.90723L30.6144 7.84277C30.3272 7.36527 30.0242 6.8962 29.7058 6.43626C29.4444 6.05184 29.1167 5.71027 28.7359 5.42533C28.2857 5.10291 27.7717 4.86632 27.2234 4.72907C26.675 4.59181 26.1031 4.55657 25.5401 4.62537C24.9491 4.69863 24.4146 4.9184 23.855 5.1953C23.6536 5.30058 23.4267 5.35647 23.1958 5.35776C22.9649 5.35904 22.7373 5.30566 22.5346 5.20263C22.3368 5.09057 22.1729 4.93348 22.0582 4.74612C21.9436 4.55877 21.8819 4.34731 21.8791 4.13163C21.8555 3.54265 21.7942 3.00056 21.5647 2.48777C21.3476 1.99878 21.0293 1.55445 20.628 1.18013C20.2266 0.805816 19.7501 0.508855 19.2256 0.306209C18.7698 0.130395 18.2982 0.0615349 17.7999 0.0307675C17.322 4.09349e-08 16.7388 0 16.0393 0H15.9607ZM13.6767 2.33686C13.7977 2.28998 13.9816 2.24749 14.3605 2.22258C14.7487 2.19767 15.2518 2.19767 16 2.19767C16.7482 2.19767 17.2513 2.19767 17.6395 2.22258C18.0184 2.24749 18.2023 2.28998 18.3233 2.33686C18.8059 2.52293 19.1879 2.87895 19.3875 3.32874C19.4504 3.4694 19.5023 3.69063 19.5227 4.21367C19.5699 5.37405 20.2128 6.49193 21.354 7.10581C22.4953 7.72116 23.855 7.68014 24.9569 7.13805C25.4537 6.89337 25.6847 6.82451 25.8482 6.80547C26.3647 6.74186 26.8872 6.87202 27.3007 7.16735C27.4044 7.24207 27.5365 7.36953 27.7487 7.66256C27.9672 7.96437 28.2187 8.37021 28.5928 8.97384C28.967 9.57747 29.2169 9.98477 29.3882 10.31C29.5564 10.628 29.6083 10.7979 29.624 10.9195C29.6923 11.4009 29.5526 11.8878 29.2358 12.2733C29.1352 12.3949 28.956 12.5473 28.4812 12.8256C27.4249 13.4439 26.7081 14.5222 26.7081 15.75C26.7081 16.9778 27.4249 18.0561 28.4812 18.6744C28.956 18.9527 29.1352 19.1051 29.2358 19.2267C29.5533 19.612 29.6916 20.0985 29.624 20.5805C29.6083 20.7021 29.5549 20.8735 29.3882 21.19C29.2169 21.5167 28.967 21.9225 28.5928 22.5262C28.2187 23.1298 27.9656 23.5356 27.7487 23.8374C27.5365 24.1305 27.4044 24.2579 27.3007 24.3327C26.8872 24.628 26.3647 24.7581 25.8482 24.6945C25.6847 24.6755 25.4552 24.6066 24.9569 24.362C23.8566 23.8199 22.4953 23.7788 21.354 24.3927C20.2128 25.0081 19.5699 26.126 19.5227 27.2863C19.5023 27.8094 19.4504 28.0306 19.3875 28.1713C19.2888 28.3937 19.144 28.5957 18.9614 28.7659C18.7788 28.9361 18.5619 29.0711 18.3233 29.1631C18.2023 29.21 18.0184 29.2525 17.6395 29.2774C17.2513 29.3023 16.7482 29.3023 16 29.3023C15.2518 29.3023 14.7487 29.3023 14.3605 29.2774C13.9816 29.2525 13.7977 29.21 13.6767 29.1631C13.4381 29.0711 13.2212 28.9361 13.0386 28.7659C12.856 28.5957 12.7112 28.3937 12.6125 28.1713C12.5496 28.0306 12.4977 27.8094 12.4773 27.2863C12.4301 26.126 11.7872 25.0081 10.646 24.3942C9.50473 23.7788 8.145 23.8199 7.04307 24.362C6.54633 24.6066 6.31526 24.6755 6.15178 24.6945C5.63529 24.7581 5.11284 24.628 4.6993 24.3327C4.59555 24.2579 4.46351 24.1305 4.2513 23.8374C3.95563 23.4085 3.67412 22.9712 3.40716 22.5262C3.03304 21.9225 2.7831 21.5152 2.61176 21.19C2.44356 20.872 2.39169 20.7021 2.37597 20.5805C2.30772 20.0991 2.44738 19.6122 2.76424 19.2267C2.86484 19.1051 3.04405 18.9527 3.51877 18.6744C4.57512 18.0561 5.29192 16.9778 5.29192 15.75C5.29192 14.5222 4.57512 13.4439 3.51877 12.8256C3.04405 12.5473 2.86484 12.3949 2.76424 12.2733C2.44738 11.8878 2.30772 11.4009 2.37597 10.9195C2.39169 10.7979 2.44514 10.6265 2.61176 10.31C2.7831 9.9833 3.03304 9.57747 3.40716 8.97384C3.78129 8.37021 4.03437 7.96437 4.2513 7.66256C4.46351 7.36953 4.59555 7.24207 4.6993 7.16735C5.11284 6.87202 5.63529 6.74186 6.15178 6.80547C6.31526 6.82451 6.54476 6.89337 7.04307 7.13805C8.14343 7.68014 9.50473 7.72116 10.646 7.10581C11.7872 6.49193 12.4301 5.37405 12.4773 4.21367C12.4977 3.69063 12.5496 3.4694 12.6125 3.32874C12.8121 2.87895 13.1941 2.52293 13.6767 2.33686Z" fill="black"/>
</g>
</g>
</svg>
