<svg width="35" height="35" viewBox="0 0 35 35" fill="none" xmlns="http://www.w3.org/2000/svg">
<g id="ic:baseline-favorite-border">
<path id="Vector" d="M24.0625 4.375C21.525 4.375 19.0896 5.55625 17.5 7.42292C15.9104 5.55625 13.475 4.375 10.9375 4.375C6.44585 4.375 2.91669 7.90417 2.91669 12.3958C2.91669 17.9083 7.87502 22.4 15.3854 29.225L17.5 31.1354L19.6146 29.2104C27.125 22.4 32.0834 17.9083 32.0834 12.3958C32.0834 7.90417 28.5542 4.375 24.0625 4.375ZM17.6459 27.0521L17.5 27.1979L17.3542 27.0521C10.4125 20.7667 5.83335 16.6104 5.83335 12.3958C5.83335 9.47917 8.02085 7.29167 10.9375 7.29167C13.1834 7.29167 15.3709 8.73542 16.1438 10.7333H18.8709C19.6292 8.73542 21.8167 7.29167 24.0625 7.29167C26.9792 7.29167 29.1667 9.47917 29.1667 12.3958C29.1667 16.6104 24.5875 20.7667 17.6459 27.0521Z" fill="black"/>
</g>
</svg>
