<svg width="30" height="29" viewBox="0 0 30 29" fill="none" xmlns="http://www.w3.org/2000/svg">
<g id="ph:lock-bold">
<path id="Vector" d="M24.375 8.60938H21.0938V6.34375C21.0938 4.78146 20.4517 3.28316 19.3089 2.17845C18.1661 1.07374 16.6162 0.453125 15 0.453125C13.3838 0.453125 11.8339 1.07374 10.6911 2.17845C9.54827 3.28316 8.90625 4.78146 8.90625 6.34375V8.60938H5.625C5.0034 8.60938 4.40726 8.84807 3.96772 9.27296C3.52818 9.69785 3.28125 10.2741 3.28125 10.875V23.5625C3.28125 24.1634 3.52818 24.7397 3.96772 25.1645C4.40726 25.5894 5.0034 25.8281 5.625 25.8281H24.375C24.9966 25.8281 25.5927 25.5894 26.0323 25.1645C26.4718 24.7397 26.7188 24.1634 26.7188 23.5625V10.875C26.7188 10.2741 26.4718 9.69785 26.0323 9.27296C25.5927 8.84807 24.9966 8.60938 24.375 8.60938ZM11.7188 6.34375C11.7188 5.50252 12.0645 4.69574 12.6798 4.1009C13.2952 3.50605 14.1298 3.17188 15 3.17188C15.8702 3.17188 16.7048 3.50605 17.3202 4.1009C17.9355 4.69574 18.2812 5.50252 18.2812 6.34375V8.60938H11.7188V6.34375ZM23.9062 23.1094H6.09375V11.3281H23.9062V23.1094ZM16.875 17.2188C16.875 17.5772 16.765 17.9277 16.559 18.2257C16.353 18.5238 16.0601 18.7561 15.7175 18.8933C15.3749 19.0305 14.9979 19.0664 14.6342 18.9964C14.2705 18.9265 13.9364 18.7539 13.6742 18.5004C13.412 18.2469 13.2334 17.9239 13.161 17.5724C13.0887 17.2208 13.1258 16.8563 13.2677 16.5251C13.4096 16.1939 13.65 15.9109 13.9583 15.7117C14.2666 15.5126 14.6292 15.4062 15 15.4062C15.4973 15.4062 15.9742 15.5972 16.3258 15.9371C16.6775 16.277 16.875 16.738 16.875 17.2188Z" fill="#25BBA0"/>
</g>
</svg>
