<svg width="39" height="37" viewBox="0 0 39 37" fill="none" xmlns="http://www.w3.org/2000/svg">
<g id="solar:camera-outline">
<path id="Vector" fill-rule="evenodd" clip-rule="evenodd" d="M12.2974 6.98709C12.7245 5.024 14.5898 3.63486 16.7254 3.63486H21.9532C24.0888 3.63486 25.9525 5.024 26.3812 6.98709C26.4285 7.20325 26.552 7.39824 26.7319 7.54067C26.9118 7.68311 27.1376 7.7647 27.373 7.77232H27.4258C29.6702 7.86523 31.3947 8.12298 32.8344 9.00861C33.7414 9.56607 34.5221 10.2824 35.13 11.1201C35.8866 12.16 36.2194 13.3559 36.3793 14.8005C36.5361 16.2136 36.5361 17.9834 36.5361 20.2252V20.3525C36.5361 22.5944 36.5361 24.3656 36.3793 25.7773C36.2194 27.2218 35.8866 28.4177 35.13 29.4592C34.5202 30.2973 33.7402 31.0148 32.8344 31.5706C31.7098 32.2614 30.4189 32.5671 28.8543 32.7125C27.3218 32.8563 25.4006 32.8563 22.9594 32.8563H15.7192C13.278 32.8563 11.3568 32.8563 9.82429 32.7125C8.25978 32.5671 6.96882 32.2629 5.84423 31.5706C4.93833 31.0144 4.15829 30.2964 3.54866 29.4577C2.792 28.4177 2.45926 27.2218 2.29929 25.7773C2.14252 24.3656 2.14252 22.5944 2.14252 20.3525V20.2252C2.14252 17.9834 2.14252 16.2136 2.29929 14.8005C2.45926 13.3559 2.792 12.16 3.54866 11.1201C4.15829 10.2813 4.93833 9.56337 5.84423 9.00712C7.28396 8.12298 9.00844 7.86523 11.2528 7.77382L11.28 7.77232H11.3056C11.541 7.7647 11.7668 7.68311 11.9467 7.54067C12.1267 7.39824 12.2502 7.20325 12.2974 6.98709ZM16.7254 5.88266C15.7016 5.88266 14.8426 6.54652 14.649 7.43515C14.337 8.87375 12.9741 10.0066 11.3344 10.0201C9.17801 10.11 8.02302 10.3573 7.15918 10.8878C6.51751 11.2822 5.96476 11.7909 5.53229 12.3848C5.09077 12.9917 4.82522 13.7695 4.68444 15.0327C4.54367 16.3155 4.54207 17.9699 4.54207 20.2896C4.54207 22.6093 4.54207 24.2622 4.68604 25.545C4.82522 26.8083 5.09077 27.586 5.53389 28.1944C5.96261 28.7848 6.5145 29.2943 7.16078 29.6899C7.82786 30.1005 8.6821 30.3478 10.0626 30.4767C11.4608 30.607 13.262 30.6085 15.7848 30.6085H22.8939C25.415 30.6085 27.2163 30.6085 28.616 30.4767C29.9965 30.3478 30.8508 30.102 31.5179 29.6914C32.1641 29.2943 32.7176 28.7848 33.1463 28.1929C33.5879 27.586 33.8534 26.8083 33.9942 25.545C34.135 24.2622 34.1366 22.6078 34.1366 20.2896C34.1366 17.9699 34.1366 16.3155 33.9926 15.0327C33.8534 13.7695 33.5879 12.9917 33.1447 12.3848C32.7128 11.7901 32.1599 11.2809 31.5179 10.8863C30.6572 10.3573 29.5022 10.11 27.3426 10.0201C25.7045 10.0051 24.3416 8.87524 24.0296 7.43515C23.9273 6.99199 23.6648 6.5955 23.2865 6.31266C22.9081 6.02981 22.4372 5.87793 21.9532 5.88266H16.7254ZM19.3393 16.3724C18.3847 16.3724 17.4692 16.7277 16.7942 17.36C16.1192 17.9923 15.74 18.8499 15.74 19.7441C15.74 20.6384 16.1192 21.496 16.7942 22.1283C17.4692 22.7606 18.3847 23.1159 19.3393 23.1159C20.2939 23.1159 21.2094 22.7606 21.8844 22.1283C22.5594 21.496 22.9386 20.6384 22.9386 19.7441C22.9386 18.8499 22.5594 17.9923 21.8844 17.36C21.2094 16.7277 20.2939 16.3724 19.3393 16.3724ZM13.3404 19.7441C13.3404 18.2538 13.9725 16.8244 15.0975 15.7705C16.2225 14.7167 17.7483 14.1246 19.3393 14.1246C20.9303 14.1246 22.4562 14.7167 23.5812 15.7705C24.7062 16.8244 25.3382 18.2538 25.3382 19.7441C25.3382 21.2345 24.7062 22.6639 23.5812 23.7177C22.4562 24.7716 20.9303 25.3637 19.3393 25.3637C17.7483 25.3637 16.2225 24.7716 15.0975 23.7177C13.9725 22.6639 13.3404 21.2345 13.3404 19.7441ZM27.7378 15.2485C27.7378 14.9504 27.8642 14.6646 28.0892 14.4538C28.3142 14.243 28.6193 14.1246 28.9375 14.1246H30.5372C30.8554 14.1246 31.1606 14.243 31.3856 14.4538C31.6106 14.6646 31.737 14.9504 31.737 15.2485C31.737 15.5466 31.6106 15.8325 31.3856 16.0432C31.1606 16.254 30.8554 16.3724 30.5372 16.3724H28.9375C28.6193 16.3724 28.3142 16.254 28.0892 16.0432C27.8642 15.8325 27.7378 15.5466 27.7378 15.2485Z" fill="white"/>
</g>
</svg>
