<svg width="32" height="35" viewBox="0 0 32 35" fill="none" xmlns="http://www.w3.org/2000/svg">
<g id="tabler:logout-2">
<g id="Group">
<path id="Vector" d="M13.3333 11.6667V8.74999C13.3333 7.97645 13.6143 7.23458 14.1144 6.6876C14.6145 6.14062 15.2928 5.83333 16 5.83333H25.3333C26.0406 5.83333 26.7189 6.14062 27.219 6.6876C27.7191 7.23458 28 7.97645 28 8.74999V26.25C28 27.0235 27.7191 27.7654 27.219 28.3124C26.7189 28.8594 26.0406 29.1667 25.3333 29.1667H16C15.2928 29.1667 14.6145 28.8594 14.1144 28.3124C13.6143 27.7654 13.3333 27.0235 13.3333 26.25V23.3333" stroke="#E30F14" stroke-width="2" stroke-linecap="round" stroke-linejoin="round"/>
<path id="Vector_2" d="M20 17.5H4M4 17.5L8 13.125M4 17.5L8 21.875" stroke="#E30F14" stroke-width="2" stroke-linecap="round" stroke-linejoin="round"/>
</g>
</g>
</svg>
