<svg width="20" height="20" viewBox="0 0 20 20" fill="none" xmlns="http://www.w3.org/2000/svg">
<path id="Vector" d="M0.850241 0C0.624743 0 0.408481 0.0877975 0.24903 0.244078C0.0895789 0.400358 0 0.61232 0 0.833333C0 1.05435 0.0895789 1.26631 0.24903 1.42259C0.408481 1.57887 0.624743 1.66667 0.850241 1.66667H1.26856C1.45318 1.66698 1.63269 1.72618 1.77994 1.83533C1.9272 1.94448 2.03421 2.09764 2.08479 2.27167L4.78176 11.5217C4.93429 12.0437 5.25609 12.5028 5.69849 12.8297C6.14089 13.1565 6.67984 13.3333 7.23385 13.3333H15.0034C15.5132 13.3334 16.0114 13.1837 16.4337 12.9036C16.8559 12.6234 17.1828 12.2257 17.3721 11.7617L19.8786 5.61833C19.9817 5.36554 20.02 5.09186 19.9902 4.82122C19.9604 4.55057 19.8634 4.2912 19.7077 4.06576C19.552 3.84033 19.3424 3.65571 19.0971 3.52803C18.8518 3.40035 18.5783 3.33351 18.3006 3.33333H4.16278L3.71895 1.81333C3.56681 1.29129 3.2454 0.831977 2.80331 0.504827C2.36123 0.177678 1.8225 0.000473947 1.26856 0H0.850241ZM7.65217 20C7.98714 20 8.31882 19.9353 8.62829 19.8097C8.93776 19.6841 9.21895 19.4999 9.45581 19.2678C9.69266 19.0356 9.88055 18.76 10.0087 18.4567C10.1369 18.1534 10.2029 17.8283 10.2029 17.5C10.2029 17.1717 10.1369 16.8466 10.0087 16.5433C9.88055 16.24 9.69266 15.9644 9.45581 15.7322C9.21895 15.5001 8.93776 15.3159 8.62829 15.1903C8.31882 15.0647 7.98714 15 7.65217 15C6.97568 15 6.32689 15.2634 5.84854 15.7322C5.37018 16.2011 5.10145 16.837 5.10145 17.5C5.10145 18.163 5.37018 18.7989 5.84854 19.2678C6.32689 19.7366 6.97568 20 7.65217 20ZM14.4541 20C14.7891 20 15.1208 19.9353 15.4302 19.8097C15.7397 19.6841 16.0209 19.4999 16.2577 19.2678C16.4946 19.0356 16.6825 18.76 16.8107 18.4567C16.9388 18.1534 17.0048 17.8283 17.0048 17.5C17.0048 17.1717 16.9388 16.8466 16.8107 16.5433C16.6825 16.24 16.4946 15.9644 16.2577 15.7322C16.0209 15.5001 15.7397 15.3159 15.4302 15.1903C15.1208 15.0647 14.7891 15 14.4541 15C13.7776 15 13.1288 15.2634 12.6505 15.7322C12.1721 16.2011 11.9034 16.837 11.9034 17.5C11.9034 18.163 12.1721 18.7989 12.6505 19.2678C13.1288 19.7366 13.7776 20 14.4541 20Z" fill="#374B4D"/>
</svg>
